<?xml version="1.0" encoding="UTF-8" standalone="no"?> <svg id="Layer_1" data-name="Layer 1" xmlns="http://www.w3.org/2000/svg" viewBox="0 0 24 24"><title>cloud, download, storage, memory, data</title><path d="M20.57,9.43A8,8,0,0,0,5.26,10,5,5,0,1,0,5,20h5V18H5a3,3,0,0,1,0-6,3.1,3.1,0,0,1,.79.12l1.12.31.14-1.15a6,6,0,0,1,11.74-.82l.15.54.54.16A3.46,3.46,0,0,1,22,14.5,3.5,3.5,0,0,1,18.5,18H16v2h2.5A5.48,5.48,0,0,0,20.57,9.43Z"/><polygon points="12 11 12 15.59 10.71 14.29 9.29 15.71 13 19.41 16.71 15.71 15.29 14.29 14 15.59 14 11 12 11"/></svg>