<svg id="Layer_1" data-name="Layer 1" xmlns="http://www.w3.org/2000/svg" viewBox="0 0 557.97 557.97"><defs><style>.cls-1{fill:#e6f8ff;}.cls-2{fill:#00e0ff;}.cls-3{fill:#fff;stroke:#1d1d1b;stroke-miterlimit:10;}.cls-4{fill:#449fe8;}.cls-5{fill:#1d1d1b;}</style></defs><rect class="cls-1" width="557.97" height="557.97" rx="14.39"/><rect class="cls-2" x="195.24" y="401.8" width="98.52" height="302.58" transform="translate(770.58 191.57) rotate(90)"/><line class="cls-3" x1="333.35" y1="406.59" x2="333.35" y2="465.56"/><rect class="cls-4" x="66.78" y="72.63" width="103.83" height="412.7"/><line class="cls-3" x1="87.63" y1="120.95" x2="149.77" y2="120.95"/><line class="cls-3" x1="87.63" y1="135.74" x2="149.77" y2="135.74"/><path class="cls-5" d="M200.49,102.46h48.32a0,0,0,0,1,0,0v331a16.58,16.58,0,0,1-16.58,16.58H200.49a0,0,0,0,1,0,0V102.46A0,0,0,0,1,200.49,102.46Z"/><path class="cls-5" d="M443.45,102.46h48.32a0,0,0,0,1,0,0v329.9a14.69,14.69,0,0,1-14.69,14.69H443.45a0,0,0,0,1,0,0V102.46A0,0,0,0,1,443.45,102.46Z"/><ellipse class="cls-5" cx="430.84" cy="440.7" rx="60.93" ry="51.07"/><ellipse class="cls-5" cx="188.63" cy="440.7" rx="60.93" ry="51.07"/><path class="cls-5" d="M227.51,183.22c144.76,66,144.75,67.24,291.28,0v129c-145.15,67.33-145.14,65.66-291.28,0Z" transform="translate(-27.01 -117.01)"/></svg>