<svg id="Layer_1" data-name="Layer 1" xmlns="http://www.w3.org/2000/svg" viewBox="0 0 557.97 557.97"><defs><style>.cls-1{fill:#e6f8ff;}.cls-2{fill:#00e0ff;}.cls-3{fill:#fff;stroke:#1d1d1b;stroke-miterlimit:10;stroke-width:3px;}.cls-4{fill:#449fe8;}.cls-5{fill:#1d1d1b;}</style></defs><rect class="cls-1" width="557.97" height="557.97" rx="14.39"/><rect class="cls-2" x="195.24" y="401.8" width="98.52" height="302.58" rx="8.75" transform="translate(770.58 191.57) rotate(90)"/><line class="cls-3" x1="333.35" y1="406.59" x2="333.35" y2="465.56"/><rect class="cls-4" x="66.78" y="72.63" width="103.83" height="412.7" rx="8.75"/><line class="cls-3" x1="87.63" y1="120.95" x2="149.77" y2="120.95"/><line class="cls-3" x1="87.63" y1="135.74" x2="149.77" y2="135.74"/><path class="cls-5" d="M198.94,102.46h48a0,0,0,0,1,0,0V442.9a7.2,7.2,0,0,1-7.2,7.2H198.94a0,0,0,0,1,0,0V102.46A0,0,0,0,1,198.94,102.46Z"/><path class="cls-5" d="M436.73,102.46H484a0,0,0,0,1,0,0V441.64a5.41,5.41,0,0,1-5.41,5.41H436.73a0,0,0,0,1,0,0V102.46A0,0,0,0,1,436.73,102.46Z"/><ellipse class="cls-5" cx="424.39" cy="440.7" rx="59.64" ry="51.07"/><ellipse class="cls-5" cx="187.33" cy="440.7" rx="59.64" ry="51.07"/><path class="cls-5" d="M226,189.65c138.33,51.92,138.43,53.57,285.08,0V312.19c-140,56.25-139.88,54.16-285.08,0Z" transform="translate(-27.01 -117.01)"/></svg>
