<?xml version="1.0" ?><svg id="Icons" style="enable-background:new 0 0 32 32;" version="1.1" viewBox="0 0 32 32" xml:space="preserve" xmlns="http://www.w3.org/2000/svg" xmlns:xlink="http://www.w3.org/1999/xlink"><style type="text/css">
	.st0{fill:none;stroke:#000000;stroke-width:2;stroke-linecap:round;stroke-linejoin:round;stroke-miterlimit:10;}
</style><g><g><path d="M23,28c-1.1,0-2.1-0.7-2.5-1.8c0-0.1,0-0.2-0.1-0.2h-8.9c0,0.1,0,0.2-0.1,0.2C11.1,27.3,10.1,28,9,28c-0.6,0-1,0.4-1,1    s0.4,1,1,1h14c0.6,0,1-0.4,1-1S23.6,28,23,28z"/></g></g><path d="M27,3H5C3.3,3,2,4.3,2,6v15c0,1.7,1.3,3,3,3h6.9h8.1H27c1.7,0,3-1.3,3-3V6C30,4.3,28.7,3,27,3z M18,17c0,0.6-0.4,1-1,1H9  c-0.6,0-1-0.4-1-1V9c0-0.6,0.4-1,1-1h8c0.6,0,1,0.4,1,1V17z M24,17c0,0.4-0.2,0.8-0.6,0.9C23.3,18,23.1,18,23,18  c-0.3,0-0.5-0.1-0.7-0.3l-3-3C19.1,14.5,19,14.3,19,14v-2c0-0.3,0.1-0.5,0.3-0.7l3-3C22.6,8,23,7.9,23.4,8.1C23.8,8.2,24,8.6,24,9  V17z"/></svg>