<?xml version="1.0" ?><svg enable-background="new 0 0 32 32" height="32px" id="svg2" version="1.1" viewBox="0 0 32 32" width="32px" xml:space="preserve" xmlns="http://www.w3.org/2000/svg" xmlns:cc="http://creativecommons.org/ns#" xmlns:dc="http://purl.org/dc/elements/1.1/" xmlns:inkscape="http://www.inkscape.org/namespaces/inkscape" xmlns:rdf="http://www.w3.org/1999/02/22-rdf-syntax-ns#" xmlns:sodipodi="http://sodipodi.sourceforge.net/DTD/sodipodi-0.dtd" xmlns:svg="http://www.w3.org/2000/svg"><g id="background"><rect fill="none" height="32" width="32"/></g><g id="document_x5F_image_x5F_add"><path d="M32,23.001c0-4.633-3.5-8.444-8-8.942V5.584L18.414,0H0v32h24v-0.059C28.5,31.443,32,27.633,32,23.001z M17.998,2.413   L21.586,6h-3.588V2.413z M2,30V1.998h14v6.001h6v6.06c-0.863,0.095-1.688,0.311-2.461,0.633C18.956,14.013,18,14,18,14l-2,0l-2-2   h-4l-2,2H6c0,0-2,0-2,2v6c0,2,2,2,2,2s4.531,0,8.058,0c0.267,2.42,1.493,4.548,3.29,6H2z M12,22c-1.658,0-3-1.342-3-3   c0-1.656,1.342-3,3-3c1.624,0,2.94,1.295,2.991,2.907c-0.333,0.651-0.589,1.347-0.756,2.077C13.685,21.603,12.892,22,12,22z M23,30   c-3.865-0.008-6.995-3.135-7-6.999c0.006-3.865,3.135-6.995,7-7.001c3.864,0.006,6.991,3.136,6.999,7.001   C29.991,26.865,26.864,29.992,23,30z"/><g><polygon points="28,22 24.002,22 24.002,18 22,18 22,22 18,22 18,24 22,24 22,28 24.002,28 24.002,24 28,24   "/></g></g></svg>