<?xml version="1.0" ?><svg id="Layer_2" style="enable-background:new 0 0 32 32;" version="1.1" viewBox="0 0 32 32" xml:space="preserve" xmlns="http://www.w3.org/2000/svg" xmlns:xlink="http://www.w3.org/1999/xlink"><g><path d="M23.58002,14.83997c-2.97003,0-5.39001,2.41003-5.39001,5.38c0,2.97003,2.41998,5.38,5.39001,5.38   c2.85999,0,5.19-2.25,5.34998-5.08002C28.95001,20.42999,28.96002,2,28.96002,2c0-0.48004-0.22003-0.92999-0.61005-1.21002   c-0.38-0.27997-0.88-0.35999-1.32996-0.21997L11.85999,5.27997C11.22998,5.47998,10.81,6.06,10.81,6.71997V21.31   c-0.72998-0.35999-1.52997-0.58002-2.39001-0.58002c-2.96997,0-5.38,2.41998-5.38,5.39001c0,2.95996,2.41003,5.38,5.38,5.38   c2.87,0,5.19-2.26001,5.35004-5.08002C13.78998,26.32001,13.81,13.69,13.81,13.69l12.15002-3.78003v5.51001   C25.23999,15.06,24.44,14.83997,23.58002,14.83997z"/></g></svg>